<?xml version="1.0" encoding="utf-8"?>
<!-- Generator: Adobe Illustrator 26.3.1, SVG Export Plug-In . SVG Version: 6.00 Build 0)  -->
<svg version="1.1" id="レイヤー_1" xmlns="http://www.w3.org/2000/svg" xmlns:xlink="http://www.w3.org/1999/xlink" x="0px"
	 y="0px" viewBox="0 0 18 18" style="enable-background:new 0 0 18 18;" xml:space="preserve">
<path d="M9.75,4.05c0,0.079,0,0.167-0.032,0.246c-0.032,0.078-0.094,0.14-0.172,0.172C9.467,4.5,9.379,4.5,9.3,4.5H8.7
	c-0.079,0-0.167,0-0.246-0.032c-0.078-0.032-0.14-0.094-0.172-0.172C8.25,4.217,8.25,4.129,8.25,4.05v-2.1
	c0-0.079,0-0.167,0.032-0.246c0.032-0.078,0.094-0.14,0.172-0.172C8.533,1.5,8.621,1.5,8.7,1.5h0.6c0.079,0,0.167,0,0.246,0.032
	c0.078,0.032,0.14,0.094,0.172,0.172C9.75,1.783,9.75,1.871,9.75,1.95V4.05z"/>
<path d="M6.03,4.969c0.056,0.056,0.118,0.118,0.151,0.197c0.032,0.078,0.032,0.165,0,0.243C6.148,5.488,6.086,5.55,6.03,5.606
	L5.606,6.03C5.55,6.086,5.488,6.148,5.409,6.181c-0.078,0.032-0.165,0.032-0.243,0C5.088,6.148,5.026,6.086,4.969,6.03L3.485,4.545
	C3.428,4.489,3.366,4.427,3.334,4.349c-0.032-0.078-0.032-0.165,0-0.243c0.033-0.078,0.095-0.141,0.151-0.197l0.424-0.424
	c0.056-0.056,0.118-0.118,0.197-0.151c0.078-0.032,0.165-0.032,0.243,0c0.078,0.033,0.141,0.095,0.197,0.151L6.03,4.969z"/>
<path d="M4.05,8.25c0.079,0,0.167,0,0.246,0.032c0.078,0.032,0.14,0.094,0.172,0.172C4.5,8.533,4.5,8.621,4.5,8.7v0.6
	c0,0.079,0,0.167-0.032,0.246c-0.032,0.078-0.094,0.14-0.172,0.172C4.217,9.75,4.129,9.75,4.05,9.75h-2.1
	c-0.079,0-0.167,0-0.246-0.032c-0.078-0.032-0.14-0.094-0.172-0.172C1.5,9.467,1.5,9.379,1.5,9.3V8.7c0-0.079,0-0.167,0.032-0.246
	c0.032-0.078,0.094-0.14,0.172-0.172C1.783,8.25,1.871,8.25,1.95,8.25H4.05z"/>
<path d="M4.969,11.97c0.056-0.056,0.118-0.118,0.197-0.151c0.078-0.032,0.165-0.032,0.243,0c0.078,0.033,0.141,0.095,0.197,0.151
	l0.424,0.424c0.056,0.056,0.118,0.118,0.151,0.197c0.032,0.078,0.032,0.165,0,0.243c-0.033,0.078-0.095,0.141-0.151,0.197
	l-1.485,1.485c-0.056,0.056-0.118,0.118-0.197,0.151c-0.078,0.032-0.165,0.032-0.243,0c-0.078-0.033-0.141-0.095-0.197-0.151
	l-0.424-0.424c-0.056-0.056-0.118-0.118-0.151-0.197c-0.032-0.078-0.032-0.165,0-0.243c0.033-0.078,0.095-0.141,0.151-0.197
	L4.969,11.97z"/>
<path d="M8.25,13.95c0-0.079,0-0.167,0.032-0.246c0.032-0.078,0.094-0.14,0.172-0.172C8.533,13.5,8.621,13.5,8.7,13.5h0.6
	c0.079,0,0.167,0,0.246,0.032c0.078,0.032,0.14,0.094,0.172,0.172C9.75,13.783,9.75,13.871,9.75,13.95v2.1
	c0,0.079,0,0.167-0.032,0.246c-0.032,0.078-0.094,0.14-0.172,0.172C9.467,16.5,9.379,16.5,9.3,16.5H8.7
	c-0.079,0-0.167,0-0.246-0.032c-0.078-0.032-0.14-0.094-0.172-0.172C8.25,16.217,8.25,16.129,8.25,16.05V13.95z"/>
<path d="M11.97,13.031c-0.056-0.056-0.118-0.118-0.151-0.197c-0.032-0.078-0.032-0.165,0-0.243c0.033-0.078,0.095-0.141,0.151-0.197
	l0.424-0.424c0.056-0.056,0.118-0.118,0.197-0.151c0.078-0.032,0.165-0.032,0.243,0c0.078,0.033,0.141,0.095,0.197,0.151
	l1.485,1.485c0.056,0.056,0.118,0.118,0.151,0.197c0.032,0.078,0.032,0.165,0,0.243c-0.033,0.078-0.095,0.141-0.151,0.197
	l-0.424,0.424c-0.056,0.056-0.118,0.118-0.197,0.151c-0.078,0.032-0.165,0.032-0.243,0c-0.078-0.033-0.141-0.095-0.197-0.151
	L11.97,13.031z"/>
<path d="M13.95,9.75c-0.079,0-0.167,0-0.246-0.032c-0.078-0.032-0.14-0.094-0.172-0.172C13.5,9.467,13.5,9.379,13.5,9.3V8.7
	c0-0.079,0-0.167,0.032-0.246c0.032-0.078,0.094-0.14,0.172-0.172C13.783,8.25,13.871,8.25,13.95,8.25h2.1
	c0.079,0,0.167,0,0.246,0.032c0.078,0.032,0.14,0.094,0.172,0.172C16.5,8.533,16.5,8.621,16.5,8.7v0.6c0,0.079,0,0.167-0.032,0.246
	c-0.032,0.078-0.094,0.14-0.172,0.172C16.217,9.75,16.129,9.75,16.05,9.75H13.95z"/>
<path d="M13.031,6.03c-0.056,0.056-0.118,0.118-0.197,0.151c-0.078,0.032-0.165,0.032-0.243,0c-0.078-0.033-0.141-0.095-0.197-0.151
	L11.97,5.606c-0.056-0.056-0.118-0.118-0.151-0.197c-0.032-0.078-0.032-0.165,0-0.243c0.033-0.078,0.095-0.141,0.151-0.197
	l1.485-1.485c0.056-0.056,0.118-0.118,0.197-0.151c0.078-0.032,0.165-0.032,0.243,0c0.078,0.033,0.141,0.095,0.197,0.151
	l0.424,0.424c0.056,0.056,0.118,0.118,0.151,0.197c0.032,0.078,0.032,0.165,0,0.243c-0.033,0.078-0.095,0.141-0.151,0.197
	L13.031,6.03z"/>
</svg>
