<?xml version="1.0" encoding="utf-8"?>
<!-- Generator: Adobe Illustrator 26.3.1, SVG Export Plug-In . SVG Version: 6.00 Build 0)  -->
<svg version="1.1" id="レイヤー_1" xmlns="http://www.w3.org/2000/svg" xmlns:xlink="http://www.w3.org/1999/xlink" x="0px"
	 y="0px" viewBox="0 0 16 16" style="enable-background:new 0 0 16 16;" xml:space="preserve">
<path d="M8,2.667c2.941,0,5.333,2.393,5.333,5.333S10.941,13.333,8,13.333S2.667,10.941,2.667,8S5.059,2.667,8,2.667 M8,1.333
	C4.318,1.333,1.333,4.318,1.333,8S4.318,14.667,8,14.667S14.667,11.682,14.667,8S11.682,1.333,8,1.333L8,1.333z"/>
<path d="M5.926,11.017c-0.05,0.05-0.105,0.105-0.175,0.134c-0.069,0.029-0.147,0.029-0.216,0c-0.07-0.029-0.125-0.084-0.175-0.134
	L4.983,10.64c-0.05-0.05-0.105-0.105-0.134-0.175c-0.029-0.069-0.029-0.147,0-0.216c0.029-0.07,0.084-0.125,0.134-0.175l5.091-5.091
	c0.05-0.05,0.105-0.105,0.175-0.134c0.069-0.029,0.147-0.029,0.216,0c0.07,0.029,0.125,0.084,0.175,0.134l0.377,0.377
	c0.05,0.05,0.105,0.105,0.134,0.175c0.029,0.069,0.029,0.147,0,0.216c-0.029,0.07-0.084,0.125-0.134,0.175L5.926,11.017z"/>
</svg>
