<?xml version="1.0" encoding="utf-8"?>
<!-- Generator: Adobe Illustrator 26.3.1, SVG Export Plug-In . SVG Version: 6.00 Build 0)  -->
<svg version="1.1" id="レイヤー_1" xmlns="http://www.w3.org/2000/svg" xmlns:xlink="http://www.w3.org/1999/xlink" x="0px"
	 y="0px" viewBox="0 0 48 48" style="enable-background:new 0 0 48 48;" xml:space="preserve">
<g>
	<path d="M24,42c-9.925,0-18-8.075-18-18S14.075,6,24,6v4c-7.72,0-14,6.28-14,14s6.28,14,14,14c7.336,0,13.373-5.672,13.954-12.861
		c0.1-0.944,0.413-1.139,1.296-1.139s0.616,0,1.487,0s1.329,0.33,1.231,1.074C41.411,34.501,33.565,42,24,42z"/>
</g>
<path d="M22,2.4l0,11.2c0,1.32,0.764,1.636,1.697,0.703l5.454-5.454c0.15-0.15,0.315-0.315,0.402-0.524
	c0.086-0.208,0.086-0.441,0-0.649c-0.087-0.209-0.253-0.375-0.402-0.524l-5.454-5.454C22.764,0.764,22,1.08,22,2.4z"/>
</svg>
