<?xml version="1.0" encoding="utf-8"?>
<!-- Generator: Adobe Illustrator 26.3.1, SVG Export Plug-In . SVG Version: 6.00 Build 0)  -->
<svg version="1.1" id="レイヤー_1" xmlns="http://www.w3.org/2000/svg" xmlns:xlink="http://www.w3.org/1999/xlink" x="0px"
	 y="0px" viewBox="0 0 48 48" style="enable-background:new 0 0 48 48;" xml:space="preserve">
<path d="M35.964,10.4l0,11.2c0,1.32,0.764,1.636,1.697,0.703l5.454-5.454c0.15-0.15,0.315-0.315,0.402-0.524
	c0.086-0.208,0.086-0.441,0-0.649c-0.087-0.209-0.253-0.375-0.402-0.524l-5.454-5.454C36.728,8.764,35.964,9.08,35.964,10.4z"/>
<path d="M38,16.8c0,0.211,0,0.446-0.098,0.655c-0.098,0.208-0.287,0.373-0.524,0.459C37.138,18,36.87,18,36.629,18H7.371
	c-0.242,0-0.509,0-0.749-0.086c-0.237-0.086-0.426-0.251-0.524-0.459C6,17.246,6,17.011,6,16.8v-1.6c0-0.211,0-0.446,0.098-0.655
	c0.098-0.208,0.287-0.373,0.524-0.459C6.862,14,7.13,14,7.371,14h29.257c0.242,0,0.509,0,0.749,0.086
	c0.237,0.086,0.426,0.251,0.524,0.459C38,14.754,38,14.989,38,15.2V16.8z"/>
<path d="M12.036,37.6l0-11.2c0-1.32-0.764-1.636-1.697-0.703l-5.454,5.454c-0.15,0.15-0.315,0.315-0.402,0.524
	c-0.086,0.208-0.086,0.441,0,0.649c0.087,0.209,0.253,0.375,0.402,0.524l5.454,5.454C11.272,39.236,12.036,38.92,12.036,37.6z"/>
<path d="M10,31.2c0-0.211,0-0.446,0.098-0.655c0.098-0.208,0.287-0.373,0.524-0.459C10.862,30,11.13,30,11.371,30h29.257
	c0.242,0,0.509,0,0.749,0.086c0.237,0.086,0.426,0.251,0.524,0.459C42,30.755,42,30.989,42,31.2v1.6c0,0.211,0,0.446-0.098,0.655
	c-0.098,0.208-0.287,0.373-0.524,0.459C41.138,34,40.87,34,40.629,34H11.371c-0.242,0-0.509,0-0.749-0.086
	c-0.237-0.086-0.426-0.251-0.524-0.459C10,33.246,10,33.012,10,32.8V31.2z"/>
</svg>
