<?xml version="1.0" encoding="utf-8"?>
<!-- Generator: Adobe Illustrator 26.3.1, SVG Export Plug-In . SVG Version: 6.00 Build 0)  -->
<svg version="1.1" id="レイヤー_1" xmlns="http://www.w3.org/2000/svg" xmlns:xlink="http://www.w3.org/1999/xlink" x="0px"
	 y="0px" viewBox="0 0 50 50" enable-background="new 0 0 50 50" xml:space="preserve">
<linearGradient id="SVGID_1_" gradientUnits="userSpaceOnUse" x1="10.7334" y1="49.7104" x2="39.2666" y2="0.2896">
	<stop  offset="0" style="stop-color:#CBB180"/>
	<stop  offset="1" style="stop-color:#E6C791"/>
</linearGradient>
<path fill="url(#SVGID_1_)" d="M50,30.157c0,3.497,0,7.368-1.425,10.835c-1.421,3.432-4.151,6.161-7.582,7.582
	C37.525,50,33.654,50,30.157,50H19.843c-3.497,0-7.368,0-10.835-1.425c-3.432-1.421-6.161-4.151-7.582-7.582
	C0,37.525,0,33.654,0,30.157V19.843c0-3.497,0-7.368,1.425-10.835c1.421-3.432,4.151-6.161,7.582-7.582C12.475,0,16.346,0,19.843,0
	h10.315c3.497,0,7.368,0,10.835,1.425c3.432,1.421,6.161,4.151,7.582,7.582C50,12.475,50,16.346,50,19.843V30.157z"/>
<g>
	<g>
		<g>
			<path d="M6.575,23.175h0.602c0.988,0,1.132-0.433,1.132-1.758v-2.553c0-2.24,1.277-3.324,3.204-3.324h2.481v2.674h-1.446
				c-0.722,0-0.747,0.433-0.747,0.891v2.553c0,1.735-0.554,2.601-2.071,2.842c1.517,0.241,2.071,1.108,2.071,2.867v2.529
				c0,0.457,0.025,0.89,0.747,0.89h1.446v2.674h-2.481c-1.927,0-3.204-1.084-3.204-3.324v-2.553c0-1.325-0.145-1.758-1.132-1.758
				H6.575V23.175z"/>
			<path d="M20.086,30.787h2.168v2.674h-5.637V15.539h5.637v2.674h-2.168V30.787z"/>
			<path d="M29.914,18.213h-2.168v-2.674h5.636v17.921h-5.636v-2.674h2.168V18.213z"/>
			<path d="M43.425,25.825h-0.602c-0.988,0-1.132,0.433-1.132,1.758v2.553c0,2.24-1.277,3.324-3.204,3.324h-2.48v-2.674h1.445
				c0.722,0,0.747-0.433,0.747-0.89v-2.529c0-1.759,0.554-2.626,2.071-2.867c-1.517-0.241-2.071-1.108-2.071-2.842v-2.553
				c0-0.459-0.025-0.891-0.747-0.891h-1.445v-2.674h2.48c1.927,0,3.204,1.084,3.204,3.324v2.553c0,1.325,0.145,1.758,1.132,1.758
				h0.602V25.825z"/>
		</g>
	</g>
	<g>
		<path d="M6.575,23.175h0.602c0.988,0,1.132-0.433,1.132-1.758v-2.553c0-2.24,1.277-3.324,3.204-3.324h2.481v2.674h-1.446
			c-0.722,0-0.747,0.433-0.747,0.891v2.553c0,1.735-0.554,2.601-2.071,2.842c1.517,0.241,2.071,1.108,2.071,2.867v2.529
			c0,0.457,0.025,0.89,0.747,0.89h1.446v2.674h-2.481c-1.927,0-3.204-1.084-3.204-3.324v-2.553c0-1.325-0.145-1.758-1.132-1.758
			H6.575V23.175z"/>
		<path d="M20.086,30.787h2.168v2.674h-5.637V15.539h5.637v2.674h-2.168V30.787z"/>
		<path d="M29.914,18.213h-2.168v-2.674h5.636v17.921h-5.636v-2.674h2.168V18.213z"/>
		<path d="M43.425,25.825h-0.602c-0.988,0-1.132,0.433-1.132,1.758v2.553c0,2.24-1.277,3.324-3.204,3.324h-2.48v-2.674h1.445
			c0.722,0,0.747-0.433,0.747-0.89v-2.529c0-1.759,0.554-2.626,2.071-2.867c-1.517-0.241-2.071-1.108-2.071-2.842v-2.553
			c0-0.459-0.025-0.891-0.747-0.891h-1.445v-2.674h2.48c1.927,0,3.204,1.084,3.204,3.324v2.553c0,1.325,0.145,1.758,1.132,1.758
			h0.602V25.825z"/>
	</g>
</g>
<rect fill="none" width="50" height="50"/>
</svg>
