<svg fill="none" height="30" viewBox="0 0 62 30" width="62" xmlns="http://www.w3.org/2000/svg"><g fill="#fff"><path d="m0 12.7268h1.01267c1.66194 0 1.90477-.7218 1.90477-2.92962v-4.25534c0-3.73494 2.14933-5.54184 5.39227-5.54184h4.17469v4.45668h-2.4335c-1.21419 0-1.25552.72173-1.25552 1.48612v4.2553c0 2.8904-.93172 4.3356-3.48405 4.7383 2.55233.4026 3.48405 1.8461 3.48405 4.7791v4.2161c0 .7627.04133 1.4844 1.25552 1.4844h2.4335v4.4567h-4.17469c-3.24294 0-5.39055-1.8069-5.39055-5.5418v-4.2554c0-2.2095-.24283-2.9296-1.90477-2.9296h-1.01439v-4.4174z"/><path d="m22.7333 25.4143h3.6476v4.4567h-9.4842v-29.871h9.4842v4.45668h-3.6476z"/><path d="m39.2666 4.45668h-3.6477v-4.45668h9.4825v29.8727h-9.4825v-4.4567h3.6477z"/><path d="m62 17.1459h-1.0126c-1.662 0-1.9048.7218-1.9048 2.9296v4.2554c0 3.7332-2.1493 5.5418-5.3906 5.5418h-4.1729v-4.4567h2.4318c1.2141 0 1.2555-.7217 1.2555-1.4844v-4.2161c0-2.933.9317-4.3765 3.484-4.7791-2.5523-.4027-3.484-1.8462-3.484-4.7383v-4.2553c0-.76439-.0414-1.48612-1.2555-1.48612h-2.4318v-4.45668h4.1729c3.243 0 5.3906 1.8069 5.3906 5.54184v4.25534c0 2.20962.2428 2.92962 1.9048 2.92962h1.0126v4.4174z"/></g>
    <style>
        @media (prefers-color-scheme: light) {
            path {
                fill: #000;
            }
        }
    </style>
</svg>