<svg width="293" height="31" viewBox="0 0 293 31" fill="none" xmlns="http://www.w3.org/2000/svg">
<path d="M0 12.7823H1.00716C2.66027 12.7823 2.9027 12.0582 2.9027 9.83892V5.56459C2.90433 1.81419 5.04068 0 8.26716 0H12.4211V4.47608H10C8.79108 4.47608 8.7504 5.20013 8.7504 5.96811V10.2424C8.7504 13.1468 7.82297 14.5965 5.28311 15C7.82297 15.4035 8.7504 16.8549 8.7504 19.7999V24.0335C8.7504 24.7999 8.79108 25.5239 10 25.5239H12.4211V30H8.26716C5.04068 30 2.9027 28.1858 2.9027 24.4354V20.1611C2.9027 17.9418 2.66027 17.2177 1.00716 17.2177H0V12.7807V12.7823Z" fill="#202025"/>
<path d="M22.6179 25.5239H26.2479V30H16.8109V0H26.2479V4.47608H22.6179V25.5239Z" fill="#202025"/>
<path d="M32.8035 24.5965V24.4842C33.9961 24.3622 34.9105 24.1344 35.5402 23.7992C36.1699 23.4673 36.6222 22.9743 36.8939 22.3251C37.1673 21.6759 37.304 20.7777 37.304 19.6307V9.80964C37.304 8.66255 37.1689 7.76441 36.8939 7.11521C36.6222 6.466 36.1699 5.97463 35.5402 5.64108C34.9105 5.3059 33.9961 5.07974 32.8035 4.95608V4.84381H41.8467V24.5981H32.8035V24.5965ZM43.2314 13.9147C45.903 13.8399 48.1744 13.8936 50.0472 14.0775C51.92 14.2613 53.5112 14.7446 54.8227 15.5304C56.1357 16.3163 56.7914 17.5268 56.7914 19.1637C56.7914 20.6492 56.2447 21.7898 55.1481 22.5854C54.0514 23.3811 52.7677 23.9082 51.2952 24.1718C49.8227 24.4354 48.2021 24.577 46.4351 24.5949H41.8484V19.6014C41.8484 20.8233 41.9769 21.7833 42.2307 22.4797C42.4846 23.1761 42.8864 23.6739 43.438 23.9749C43.988 24.276 44.7332 24.4256 45.6736 24.4256C47.055 24.4256 48.1972 24.2027 49.0954 23.7569C49.9935 23.3095 50.6525 22.7075 51.0723 21.9492C51.4888 21.1926 51.7003 20.3384 51.7003 19.3882C51.7003 18.1468 51.3326 17.1217 50.5972 16.3131C49.865 15.5044 48.7586 14.9121 47.2828 14.533C45.807 14.1572 43.9278 14.0075 41.6531 14.0823V13.9701C42.2633 13.9505 42.7904 13.9326 43.2346 13.9131L43.2314 13.9147ZM49.6502 5.10902C50.8542 5.288 51.9574 5.69802 52.9597 6.33746C53.9619 6.9769 54.4615 7.92549 54.4615 9.1881C54.4615 10.288 54.0677 11.1731 53.2769 11.8402C52.4878 12.509 51.5897 12.9873 50.5825 13.2818C49.577 13.5731 48.4803 13.7895 47.2958 13.9294H47.2112C47.8702 13.6007 48.3925 13.0914 48.7781 12.3999C49.1637 11.7068 49.3573 10.8721 49.3573 9.89425C49.3573 8.91638 49.1588 8.0345 48.7651 7.30557C48.3697 6.57664 47.7888 6.01205 47.0208 5.61342C46.2545 5.21316 45.3157 5.01303 44.206 5.01303C43.6235 5.01303 43.1435 5.06184 42.7677 5.16109C42.3918 5.26197 42.0859 5.40841 41.85 5.60528V4.84381H46.0267C47.2389 4.84381 48.4478 4.93493 49.6535 5.11228L49.6502 5.10902Z" fill="#202025"/>
<path d="M65.3287 22.4097C65.5158 22.9743 65.838 23.4234 66.2952 23.7585C66.7491 24.0905 67.4114 24.3427 68.277 24.5119V24.5965H57.6945V24.5119C58.5584 24.3427 59.2207 24.0905 59.6762 23.7585C60.1334 23.4234 60.454 22.9743 60.6427 22.4097C60.8315 21.8451 60.9242 21.1031 60.9242 20.1806V14.93C60.9242 14.206 60.838 13.6153 60.6639 13.1598C60.4881 12.7026 60.205 12.3332 59.8097 12.0517C59.4143 11.7702 58.8448 11.5441 58.1029 11.3749V11.3033H65.044V20.179C65.044 21.0999 65.1383 21.8418 65.3271 22.4081L65.3287 22.4097ZM69.5038 14.481C68.4706 14.4338 67.5513 14.6681 66.7459 15.1855C65.9421 15.7029 65.3694 16.5018 65.0309 17.5854L65.0033 17.5008C65.5386 14.7999 66.4823 12.9222 67.8328 11.863C69.1832 10.8054 70.9958 10.6085 73.2721 11.2789C72.9239 12.6033 72.6928 13.9635 72.5806 15.3563C71.5653 14.821 70.5386 14.5298 69.5038 14.4826V14.481Z" fill="#202025"/>
<path d="M81.9427 17.1754C81.0543 17.5512 80.3547 18.0231 79.8405 18.5926C79.328 19.162 79.0725 19.8275 79.0725 20.5906C79.0725 21.3049 79.2971 21.8955 79.7494 22.3609C80.2001 22.8278 80.877 23.0605 81.7816 23.0605C82.4862 23.0605 83.1256 22.9369 83.7016 22.6863C84.2743 22.4357 84.7494 22.1396 85.1269 21.7914L85.1399 21.863C84.5753 22.7563 83.8366 23.5128 82.9238 24.1344C82.0127 24.7543 80.8217 25.0651 79.3557 25.0651C78.3957 25.0651 77.5838 24.9186 76.9199 24.6274C76.2577 24.3361 75.7598 23.9277 75.4312 23.4071C75.1025 22.8832 74.9365 22.2844 74.9365 21.6075C74.9365 20.4133 75.4084 19.4598 76.3553 18.7488C77.3007 18.0377 78.464 17.5122 79.847 17.1673C81.2284 16.8239 82.9889 16.4985 85.1253 16.1861V16.2838C83.8936 16.5002 82.8327 16.7979 81.9427 17.1738V17.1754ZM75.3465 14.9609C75.6004 13.5389 76.3147 12.4959 77.4927 11.8272C78.6674 11.1601 80.2668 10.8249 82.2893 10.8249C84.1523 10.8249 85.589 11.0787 86.601 11.5864C87.6114 12.094 88.2932 12.7465 88.6463 13.5405C88.9993 14.3361 89.1751 15.2587 89.1751 16.3147V21.0983C89.1751 21.6905 89.2418 22.1526 89.3801 22.4878C89.5151 22.8197 89.699 23.0508 89.93 23.1793C90.1611 23.3046 90.4214 23.3697 90.7143 23.3697C91.0999 23.3697 91.453 23.2753 91.7735 23.0865C92.0924 22.8994 92.343 22.6391 92.5219 22.3104L92.5773 22.382C92.2388 23.1158 91.7605 23.7406 91.1389 24.258C90.519 24.7755 89.6632 25.0342 88.5714 25.0342C87.574 25.0342 86.7361 24.7527 86.0592 24.1881C85.3823 23.6251 85.0439 22.6603 85.0439 21.2968V14.3963C85.0439 13.9359 84.9593 13.4413 84.7901 12.9141C84.6209 12.3885 84.3361 11.9297 83.9359 11.5376C83.5356 11.1471 83.0166 10.9535 82.3771 10.9535C81.6807 10.9535 81.1275 11.1991 80.7191 11.6938C80.3091 12.1884 80.0244 12.7758 79.8649 13.4575C79.7055 14.1409 79.6241 14.8064 79.6241 15.4539C78.2509 15.1448 76.8256 14.9788 75.3482 14.9626L75.3465 14.9609Z" fill="#202025"/>
<path d="M98.15 24.2727C96.8988 23.765 95.8998 22.9775 95.1513 21.9102C94.4028 20.8412 94.0286 19.5054 94.0286 17.8946C94.0286 16.3911 94.3605 15.1106 95.0309 14.0579C95.698 13.0052 96.6759 12.2014 97.9661 11.6531C99.2532 11.1015 100.82 10.8265 102.665 10.8265C104.867 10.8265 106.634 11.2301 107.971 12.0338C109.305 12.8392 110.088 14.0498 110.314 15.6671C108.791 15.864 107.332 16.165 105.94 16.5701C105.864 14.9219 105.574 13.5763 105.072 12.5268C104.567 11.4774 103.676 10.9534 102.397 10.9534C101.411 10.9534 100.622 11.2545 100.034 11.8565C99.4452 12.4569 99.0335 13.1907 98.7992 14.0579C98.5633 14.9219 98.4445 15.7924 98.4445 16.6677C98.4445 17.9369 98.6918 19.0254 99.1864 19.9333C99.6811 20.8412 100.384 21.5376 101.295 22.0224C102.208 22.5073 103.285 22.7481 104.528 22.7481C105.703 22.7481 106.795 22.5041 107.802 22.0159C108.807 21.5262 109.637 20.7126 110.285 19.5737L110.356 19.603C109.67 21.3911 108.676 22.7432 107.372 23.6609C106.069 24.5769 104.391 25.0342 102.343 25.0342C100.799 25.0342 99.4012 24.7803 98.1516 24.2727H98.15Z" fill="#202025"/>
<path d="M117.213 24.2532C115.95 23.7292 114.954 22.932 114.221 21.8614C113.487 20.7891 113.121 19.4614 113.121 17.8815C113.121 16.3016 113.471 15.0683 114.172 14.0156C114.873 12.9629 115.882 12.1672 117.205 11.6319C118.526 11.095 120.109 10.8265 121.952 10.8265C124.427 10.8265 126.367 11.3407 127.774 12.3658C129.18 13.3908 129.878 15.0407 129.868 17.3186L125.622 17.0778C125.622 15.2701 125.324 13.7976 124.732 12.6603C124.139 11.5229 123.14 10.9534 121.739 10.9534C120.771 10.9534 119.974 11.2333 119.348 11.7914C118.723 12.3527 118.266 13.067 117.974 13.9375C117.681 14.808 117.535 15.7273 117.535 16.6954C117.535 17.9092 117.773 18.9684 118.248 19.878C118.724 20.7859 119.426 21.4904 120.35 21.9948C121.277 22.4975 122.395 22.7481 123.702 22.7481C124.886 22.7481 125.997 22.5122 127.031 22.0355C128.065 21.5604 128.913 20.7631 129.572 19.6437L129.644 19.6876C128.938 21.4546 127.919 22.7904 126.588 23.6869C125.255 24.5851 123.55 25.0342 121.473 25.0342C119.891 25.0342 118.472 24.7738 117.213 24.2532ZM122.037 16.7393C123.448 16.5229 124.793 16.2252 126.072 15.8493L129.868 17.3186H117.338V17.247C119.061 17.1249 120.625 16.9557 122.037 16.7393Z" fill="#202025"/>
<path d="M131.832 24.5965V24.4842C133.025 24.3622 133.939 24.1344 134.569 23.7992C135.199 23.4673 135.651 22.9743 135.923 22.3251C136.196 21.6759 136.333 20.7777 136.333 19.6307V9.80964C136.333 8.66255 136.198 7.76441 135.923 7.11521C135.651 6.466 135.199 5.97463 134.569 5.64108C133.939 5.3059 133.025 5.07974 131.832 4.95608V4.84381H140.875V24.5981H131.832V24.5965ZM142.26 13.9147C144.932 13.8399 147.203 13.8936 149.076 14.0775C150.949 14.2613 152.54 14.7446 153.851 15.5304C155.164 16.3163 155.82 17.5268 155.82 19.1637C155.82 20.6492 155.273 21.7898 154.177 22.5854C153.08 23.3811 151.796 23.9082 150.324 24.1718C148.851 24.4354 147.231 24.577 145.464 24.5949H140.877V19.6014C140.877 20.8233 141.006 21.7833 141.259 22.4797C141.513 23.1761 141.915 23.6739 142.467 23.9749C143.017 24.276 143.762 24.4256 144.702 24.4256C146.084 24.4256 147.226 24.2027 148.124 23.7569C149.022 23.3095 149.681 22.7075 150.101 21.9492C150.517 21.1926 150.729 20.3384 150.729 19.3882C150.729 18.1468 150.361 17.1217 149.626 16.3131C148.894 15.5044 147.787 14.9121 146.311 14.533C144.836 14.1572 142.956 14.0075 140.682 14.0823V13.9701C141.292 13.9505 141.819 13.9326 142.263 13.9131L142.26 13.9147ZM148.679 5.10902C149.883 5.288 150.986 5.69802 151.988 6.33746C152.991 6.9769 153.49 7.92549 153.49 9.1881C153.49 10.288 153.096 11.1731 152.306 11.8402C151.516 12.509 150.618 12.9873 149.611 13.2818C148.606 13.5731 147.509 13.7895 146.324 13.9294H146.24C146.899 13.6007 147.421 13.0914 147.807 12.3999C148.192 11.7068 148.386 10.8721 148.386 9.89425C148.386 8.91638 148.187 8.0345 147.794 7.30557C147.398 6.57664 146.817 6.01205 146.049 5.61342C145.283 5.21316 144.344 5.01303 143.235 5.01303C142.652 5.01303 142.172 5.06184 141.796 5.16109C141.42 5.26197 141.115 5.40841 140.879 5.60528V4.84381H145.055C146.267 4.84381 147.476 4.93493 148.682 5.11228L148.679 5.10902Z" fill="#202025"/>
<path d="M164.356 22.4097C164.543 22.9743 164.865 23.4234 165.322 23.7585C165.776 24.0905 166.438 24.3427 167.304 24.5119V24.5965H156.721V24.5119C157.585 24.3427 158.248 24.0905 158.703 23.7585C159.16 23.4234 159.481 22.9743 159.67 22.4097C159.858 21.8451 159.951 21.1031 159.951 20.1806V14.93C159.951 14.206 159.865 13.6153 159.691 13.1598C159.515 12.7026 159.232 12.3332 158.837 12.0517C158.441 11.7702 157.872 11.5441 157.13 11.3749V11.3033H164.071V20.179C164.071 21.0999 164.165 21.8418 164.354 22.4081L164.356 22.4097ZM168.531 14.481C167.498 14.4338 166.578 14.6681 165.773 15.1855C164.969 15.7029 164.396 16.5018 164.058 17.5854L164.03 17.5008C164.566 14.7999 165.509 12.9222 166.86 11.863C168.21 10.8054 170.023 10.6085 172.299 11.2789C171.951 12.6033 171.72 13.9635 171.608 15.3563C170.592 14.821 169.566 14.5298 168.531 14.4826V14.481Z" fill="#202025"/>
<path d="M180.97 17.1754C180.081 17.5512 179.382 18.0231 178.868 18.5926C178.355 19.162 178.1 19.8275 178.1 20.5906C178.1 21.3049 178.324 21.8955 178.776 22.3609C179.227 22.8278 179.904 23.0605 180.809 23.0605C181.513 23.0605 182.153 22.9369 182.729 22.6863C183.301 22.4357 183.776 22.1396 184.154 21.7914L184.167 21.863C183.602 22.7563 182.864 23.5128 181.951 24.1344C181.04 24.7543 179.849 25.0651 178.383 25.0651C177.423 25.0651 176.611 24.9186 175.947 24.6274C175.285 24.3361 174.787 23.9277 174.458 23.4071C174.13 22.8832 173.964 22.2844 173.964 21.6075C173.964 20.4133 174.435 19.4598 175.382 18.7488C176.328 18.0377 177.491 17.5122 178.874 17.1673C180.255 16.8239 182.016 16.4985 184.152 16.1861V16.2838C182.921 16.5002 181.86 16.7979 180.97 17.1738V17.1754ZM174.374 14.9609C174.627 13.5389 175.342 12.4959 176.52 11.8272C177.694 11.1601 179.294 10.8249 181.316 10.8249C183.179 10.8249 184.616 11.0787 185.628 11.5864C186.638 12.094 187.32 12.7465 187.673 13.5405C188.026 14.3361 188.202 15.2587 188.202 16.3147V21.0983C188.202 21.6905 188.269 22.1526 188.407 22.4878C188.542 22.8197 188.726 23.0508 188.957 23.1793C189.188 23.3046 189.448 23.3697 189.741 23.3697C190.127 23.3697 190.48 23.2753 190.801 23.0865C191.119 22.8994 191.37 22.6391 191.549 22.3104L191.604 22.382C191.266 23.1158 190.787 23.7406 190.166 24.258C189.546 24.7755 188.69 25.0342 187.598 25.0342C186.601 25.0342 185.763 24.7527 185.086 24.1881C184.409 23.6251 184.071 22.6603 184.071 21.2968V14.3963C184.071 13.9359 183.986 13.4413 183.817 12.9141C183.648 12.3885 183.363 11.9297 182.963 11.5376C182.563 11.1471 182.044 10.9535 181.404 10.9535C180.708 10.9535 180.155 11.1991 179.746 11.6938C179.336 12.1884 179.051 12.7758 178.892 13.4575C178.733 14.1409 178.651 14.8064 178.651 15.4539C177.278 15.1448 175.853 14.9788 174.375 14.9626L174.374 14.9609Z" fill="#202025"/>
<path d="M197.177 24.2727C195.926 23.765 194.927 22.9775 194.178 21.9102C193.43 20.8412 193.056 19.5054 193.056 17.8946C193.056 16.3911 193.388 15.1106 194.058 14.0579C194.725 13.0052 195.703 12.2014 196.993 11.6531C198.28 11.1015 199.847 10.8265 201.692 10.8265C203.894 10.8265 205.661 11.2301 206.998 12.0338C208.332 12.8392 209.115 14.0498 209.341 15.6671C207.818 15.864 206.359 16.165 204.967 16.5701C204.891 14.9219 204.601 13.5763 204.099 12.5268C203.594 11.4774 202.703 10.9534 201.424 10.9534C200.438 10.9534 199.649 11.2545 199.061 11.8565C198.472 12.4569 198.061 13.1907 197.826 14.0579C197.59 14.9219 197.472 15.7924 197.472 16.6677C197.472 17.9369 197.719 19.0254 198.213 19.9333C198.708 20.8412 199.411 21.5376 200.322 22.0224C201.235 22.5073 202.312 22.7481 203.555 22.7481C204.73 22.7481 205.822 22.5041 206.829 22.0159C207.834 21.5262 208.664 20.7126 209.312 19.5737L209.383 19.603C208.697 21.3911 207.703 22.7432 206.399 23.6609C205.096 24.5769 203.418 25.0342 201.37 25.0342C199.826 25.0342 198.428 24.7803 197.179 24.2727H197.177Z" fill="#202025"/>
<path d="M218.131 22.4097C218.318 22.9743 218.64 23.4234 219.097 23.7585C219.551 24.0905 220.213 24.3427 221.079 24.5119V24.5965H210.496V24.5119C211.36 24.3427 212.022 24.0905 212.478 23.7585C212.935 23.4234 213.256 22.9743 213.445 22.4097C213.633 21.8451 213.726 21.1032 213.726 20.1806V7.05662C213.726 6.3342 213.64 5.74357 213.466 5.28636C213.29 4.82916 213.007 4.46306 212.611 4.18646C212.216 3.90823 211.647 3.68369 210.905 3.51448V3.42987H217.846V20.1822C217.846 21.1032 217.94 21.8451 218.129 22.4113L218.131 22.4097ZM221.601 21.069C220.454 19.7429 219.377 18.6186 218.371 17.6961C219.001 17.1982 219.553 16.7231 220.029 16.2707C220.504 15.82 220.936 15.3872 221.321 14.974L221.731 14.507C222.229 13.9619 222.504 13.4787 222.556 13.0605C222.607 12.644 222.447 12.2925 222.076 12.0094C221.704 11.728 221.129 11.5181 220.348 11.3749V11.3033H230.353V11.3749C228.972 11.4871 227.771 11.6661 226.754 11.9102C225.739 12.1559 224.844 12.4764 224.073 12.8767C223.303 13.2769 222.522 13.8253 221.731 14.52C221.401 14.8113 221.142 15.0618 220.953 15.2685L221.11 14.9593L227.247 21.2659C227.877 21.933 228.428 22.4764 228.899 22.8962C229.369 23.3127 229.842 23.6593 230.316 23.931C230.792 24.2044 231.292 24.398 231.819 24.5103V24.5949H224.213C223.62 23.5698 222.75 22.3934 221.603 21.0674L221.601 21.069Z" fill="#202025"/>
<path d="M235.402 24.2532C234.139 23.7292 233.143 22.932 232.41 21.8614C231.676 20.7891 231.31 19.4614 231.31 17.8815C231.31 16.3016 231.66 15.0683 232.361 14.0156C233.062 12.9629 234.071 12.1672 235.394 11.6319C236.715 11.095 238.298 10.8265 240.142 10.8265C242.616 10.8265 244.556 11.3407 245.963 12.3658C247.369 13.3908 248.067 15.0407 248.057 17.3186L243.811 17.0778C243.811 15.2701 243.513 13.7976 242.921 12.6603C242.328 11.5229 241.329 10.9534 239.928 10.9534C238.96 10.9534 238.163 11.2333 237.537 11.7914C236.912 12.3527 236.455 13.067 236.163 13.9375C235.87 14.808 235.724 15.7273 235.724 16.6954C235.724 17.9092 235.962 18.9684 236.437 19.878C236.913 20.7859 237.615 21.4904 238.539 21.9948C239.466 22.4975 240.584 22.7481 241.891 22.7481C243.075 22.7481 244.186 22.5122 245.22 22.0355C246.254 21.5604 247.102 20.7631 247.761 19.6437L247.833 19.6876C247.127 21.4546 246.108 22.7904 244.777 23.6869C243.445 24.5851 241.739 25.0342 239.662 25.0342C238.08 25.0342 236.661 24.7738 235.402 24.2532ZM240.226 16.7393C241.637 16.5229 242.982 16.2252 244.261 15.8493L248.057 17.3186H235.527V17.247C237.25 17.1249 238.814 16.9557 240.226 16.7393Z" fill="#202025"/>
<path d="M261.35 11.6027H256.526V20.2799C256.526 21.3049 256.721 22.0713 257.11 22.5789C257.502 23.0866 258.054 23.3404 258.77 23.3404C259.315 23.3404 259.821 23.2184 260.286 22.9743C260.753 22.7302 261.145 22.4048 261.466 21.9997L261.521 22.0843C261.484 22.1315 261.453 22.1754 261.424 22.2128C261.075 22.7774 260.719 23.2558 260.353 23.6512C259.985 24.0465 259.499 24.3752 258.892 24.6388C258.283 24.9007 257.543 25.0325 256.669 25.0325C255.21 25.0325 254.136 24.6372 253.444 23.8415C252.753 23.0459 252.406 21.8126 252.406 20.1367V11.5718H249.302V11.4741C250.439 11.108 251.453 10.6573 252.343 10.1253C253.231 9.59648 254.019 8.95867 254.705 8.21347C255.392 7.47153 255.971 6.58802 256.442 5.56134H256.526V11.4318C258.484 11.0364 260.163 10.5565 261.564 9.99024L261.635 10.0195L261.352 11.601L261.35 11.6027Z" fill="#202025"/>
<path d="M270.07 4.47608H266.44V0H275.875V30H266.44V25.5239H270.07V4.47608Z" fill="#202025"/>
<path d="M292.689 17.2193H291.682C290.029 17.2193 289.787 17.9434 289.787 20.1627V24.437C289.787 28.1874 287.649 30.0016 284.422 30.0016H280.27V25.5255H282.689C283.898 25.5255 283.939 24.8015 283.939 24.0351V19.8015C283.939 16.8565 284.866 15.4051 287.406 15.0016C284.866 14.5981 283.939 13.1468 283.939 10.2441V5.96974C283.939 5.20176 283.898 4.47771 282.689 4.47771H280.27V0H284.422C287.649 0 289.787 1.81419 289.787 5.56459V9.83892C289.787 12.0582 290.029 12.7823 291.682 12.7823H292.689V17.2193Z" fill="#202025"/>
</svg>
