<?xml version="1.0" encoding="utf-8"?>
<!-- Generator: Adobe Illustrator 26.3.1, SVG Export Plug-In . SVG Version: 6.00 Build 0)  -->
<svg version="1.1" id="レイヤー_1" xmlns="http://www.w3.org/2000/svg" xmlns:xlink="http://www.w3.org/1999/xlink" x="0px"
	 y="0px" viewBox="0 0 293 31" style="enable-background:new 0 0 293 31;" xml:space="preserve">
<g>
	<path d="M0,13.5h0.9c1.5,0,1.7-0.6,1.7-2.6V7.1c0-3.3,1.9-5,4.8-5h3.7v4H8.9c-1.1,0-1.1,0.6-1.1,1.3v3.8c0,2.6-0.8,3.9-3.1,4.2
		c2.3,0.4,3.1,1.7,3.1,4.3v3.8c0,0.7,0,1.3,1.1,1.3h2.2v4H7.4c-2.9,0-4.8-1.6-4.8-5v-3.8c0-2-0.2-2.6-1.7-2.6H0V13.5z"/>
	<path d="M20.1,24.9h3.2v4H15V2.1h8.4v4h-3.2V24.9z"/>
	<path d="M28.8,3.8h13.3c4.6,0,7.3,2.2,7.3,5.8c0,3-1.9,4.9-4.9,5.2v0.1c3.5,0.3,5.5,2.4,5.5,5.7c0,3.8-3.1,6.1-8.3,6.1h-13V3.8z
		 M40.2,13.1c2.2,0,3.2-0.8,3.2-2.4s-1-2.4-3.1-2.4h-5.7v4.7H40.2z M40.5,22.1c2.5,0,3.6-0.7,3.6-2.4c0-1.6-1.1-2.4-3.5-2.4h-5.9
		v4.8H40.5z"/>
	<path d="M65,14.7c-3.6,0-6,2.6-6,6.6v5.4h-5.7V9.9h5.6v6.3H59c0.6-3.4,1.6-5.1,3.6-6c0.6-0.3,1.5-0.5,2.4-0.5c0.5,0,1,0,1.4,0.2
		v5.1C66,14.8,65.5,14.7,65,14.7z"/>
	<path d="M67.8,22.7c0-2.3,1.5-3.8,4.6-4.7l7.2-2.1v-0.2c0-1.6-0.9-2.4-2.7-2.4c-1.9,0-3.5,1.2-4.2,3.5l-4.5-1.7
		c1.4-3.7,4.4-5.6,9-5.6c5,0,8.2,2.3,8.2,6.1v5.2c0,1.3,0.4,1.8,1.4,1.8c0.5,0,1.1-0.1,1.5-0.3v4.1c-1,0.4-2.5,0.7-3.7,0.7
		c-2.8,0-4.6-1.6-4.6-4v-0.3h-0.2c-1.2,2.7-3.5,4.3-6.5,4.3C70.1,27.1,67.8,25.2,67.8,22.7z M75.3,23c1.8,0,3.7-1.4,4.3-3v-1.7
		l-4.4,1.7c-1.4,0.5-1.8,0.9-1.8,1.6C73.5,22.4,74.2,23,75.3,23z"/>
	<path d="M98.6,27.1c-5.6,0-9.3-3.4-9.3-8.5c0-5.3,3.9-9,9.5-9c4.7,0,8.1,2.5,8.9,6.6l-4.6,1.2c-0.6-2.4-2-3.7-4.1-3.7
		c-2.4,0-3.9,1.8-3.9,4.7c0,3,1.4,4.6,3.9,4.6c2.4,0,3.8-1.4,4.2-4.1l4.9,0.6C107.5,24.3,104,27.1,98.6,27.1z"/>
	<path d="M119.3,27.1c-5.7,0-9.3-3.3-9.3-8.5c0-5.4,3.8-9,9.5-9c5.7,0,9.2,3.6,9.2,9.5h-12.9c0.2,2.6,1.5,3.9,3.9,3.9
		c2.2,0,3.7-1.1,4.2-3.1l4.6,1.4C127.2,25.1,124,27.1,119.3,27.1z M123,16.5c-0.4-2-1.6-3-3.4-3c-2,0-3.2,1-3.7,3H123z"/>
	<path d="M131.9,3.8h13.3c4.6,0,7.3,2.2,7.3,5.8c0,3-1.9,4.9-4.9,5.2v0.1c3.5,0.3,5.5,2.4,5.5,5.7c0,3.8-3.1,6.1-8.3,6.1h-13V3.8z
		 M143.3,13.1c2.2,0,3.2-0.8,3.2-2.4s-1-2.4-3.1-2.4h-5.7v4.7H143.3z M143.6,22.1c2.5,0,3.6-0.7,3.6-2.4c0-1.6-1.1-2.4-3.5-2.4h-5.9
		v4.8H143.6z"/>
	<path d="M168.1,14.7c-3.6,0-6,2.6-6,6.6v5.4h-5.7V9.9h5.6v6.3h0.1c0.6-3.4,1.6-5.1,3.6-6c0.6-0.3,1.5-0.5,2.4-0.5
		c0.5,0,1,0,1.4,0.2v5.1C169.1,14.8,168.6,14.7,168.1,14.7z"/>
	<path d="M170.9,22.7c0-2.3,1.5-3.8,4.6-4.7l7.2-2.1v-0.2c0-1.6-0.9-2.4-2.7-2.4c-1.9,0-3.5,1.2-4.2,3.5l-4.5-1.7
		c1.4-3.7,4.4-5.6,9-5.6c5,0,8.2,2.3,8.2,6.1v5.2c0,1.3,0.4,1.8,1.4,1.8c0.5,0,1.1-0.1,1.5-0.3v4.1c-1,0.4-2.5,0.7-3.7,0.7
		c-2.8,0-4.6-1.6-4.6-4v-0.3h-0.2c-1.2,2.7-3.5,4.3-6.5,4.3C173.2,27.1,170.9,25.2,170.9,22.7z M178.4,23c1.8,0,3.7-1.4,4.3-3v-1.7
		l-4.4,1.7c-1.4,0.5-1.8,0.9-1.8,1.6C176.6,22.4,177.3,23,178.4,23z"/>
	<path d="M201.7,27.1c-5.6,0-9.3-3.4-9.3-8.5c0-5.3,3.9-9,9.5-9c4.7,0,8.1,2.5,8.9,6.6l-4.6,1.2c-0.6-2.4-2-3.7-4.1-3.7
		c-2.4,0-3.9,1.8-3.9,4.7c0,3,1.4,4.6,3.9,4.6c2.4,0,3.8-1.4,4.2-4.1l4.9,0.6C210.6,24.3,207.1,27.1,201.7,27.1z"/>
	<path d="M219.1,3.8v12.6l7-6.5h6.8l-7.2,6.5l7.6,10.3h-6.5l-5-7.1l-2.6,2.4v4.7h-5.7V3.8H219.1z"/>
	<path d="M242.2,27.1c-5.7,0-9.3-3.3-9.3-8.5c0-5.4,3.8-9,9.5-9c5.7,0,9.2,3.6,9.2,9.5h-12.9c0.2,2.6,1.5,3.9,3.9,3.9
		c2.2,0,3.7-1.1,4.2-3.1l4.6,1.4C250.2,25.1,246.9,27.1,242.2,27.1z M245.9,16.5c-0.4-2-1.6-3-3.4-3c-2,0-3.2,1-3.7,3H245.9z"/>
	<path d="M256.1,9.9l2.5-4.9h2.5v4.9h4.7v4h-4.7v6c0,2.1,0.6,2.8,2.5,2.8c0.7,0,1.4-0.1,2.4-0.3v4.1c-1.6,0.4-2.9,0.5-4.7,0.5
		c-4.1,0-5.9-1.4-5.9-4.5v-8.6h-2.5v-4H256.1z"/>
	<path d="M272.9,6.1h-3.2v-4h8.4v26.7h-8.4v-4h3.2V6.1z"/>
	<path d="M293,17.5h-0.9c-1.5,0-1.7,0.6-1.7,2.6v3.8c0,3.3-1.9,5-4.8,5h-3.7v-4h2.2c1.1,0,1.1-0.6,1.1-1.3v-3.8
		c0-2.6,0.8-3.9,3.1-4.3c-2.3-0.4-3.1-1.7-3.1-4.2V7.5c0-0.7,0-1.3-1.1-1.3h-2.2v-4h3.7c2.9,0,4.8,1.6,4.8,5v3.8
		c0,2,0.2,2.6,1.7,2.6h0.9V17.5z"/>
</g>
</svg>
