<svg fill="none" height="26" viewBox="0 0 26 26" width="26" xmlns="http://www.w3.org/2000/svg"><path d="m22.2875 14.225c.05-.4.0875-.8.0875-1.225s-.0375-.825-.0875-1.225l2.6375-2.0625c.2375-.1875.3-.525.15-.8l-2.5-4.325c-.0736-.12897-.1909-.22748-.3306-.27787s-.2928-.04938-.4319.00287l-3.1125 1.25c-.65-.5-1.35-.9125-2.1125-1.225l-.475-3.3125c-.0206-.147076-.0943-.281552-.207-.378208-.1128-.096655-.2569-.14885-.4055-.146795h-5c-.3125 0-.57496.225001-.61246.525003l-.475 3.3125c-.7625.3125-1.4625.7375-2.1125 1.225l-3.1125-1.25c-.07247-.02459-.14846-.03725-.225-.0375-.2125 0-.425.1125-.5375.3125l-2.499997 4.325c-.1625.275-.087499.6125.149997.8l2.6375 2.0625c-.05.4-.0875.8125-.0875 1.225s.0375.825.0875 1.225l-2.6375 2.0625c-.237496.1875-.299997.525-.149997.8l2.499997 4.325c.07369.129.1909.2275.33063.2779.13972.0504.29283.0493.43187-.0029l3.1125-1.25c.65.5 1.35.9125 2.1125 1.225l.475 3.3125c.0375.3.29996.525.61246.525h5c.3125 0 .575-.225.6125-.525l.475-3.3125c.7625-.3125 1.4625-.7375 2.1125-1.225l3.1125 1.25c.075.025.15.0375.225.0375.2125 0 .425-.1125.5375-.3125l2.5-4.325c.15-.275.0875-.6125-.15-.8zm-2.475-2.1375c.05.3875.0625.65.0625.9125s-.025.5375-.0625.9125l-.175 1.4125 1.1125.875 1.35 1.05-.875 1.5125-1.5875-.6375-1.3-.525-1.125.85c-.5375.4-1.05.7-1.5625.9125l-1.325.5375-.2 1.4125-.25 1.6875h-1.75l-.2375-1.6875-.2-1.4125-1.325-.5375c-.53746-.225-1.03746-.5125-1.53746-.8875l-1.1375-.875-1.325.5375-1.5875.6375-.875-1.5125 1.35-1.05 1.1125-.875-.175-1.4125c-.0375-.3875-.0625-.675-.0625-.925s.025-.5375.0625-.9125l.175-1.4125-1.1125-.875-1.35-1.05.875-1.5125 1.5875.6375 1.3.525 1.125-.85c.5375-.4 1.05-.7 1.56246-.9125l1.325-.5375.2-1.4125.25-1.6875h1.7375l.2375 1.6875.2 1.4125 1.325.5375c.5375.225 1.0375.5125 1.5375.8875l1.1375.875 1.325-.5375 1.5875-.6375.875 1.5125-1.3375 1.0625-1.1125.875zm-6.8125-4.0875c-2.7625 0-4.99996 2.2375-4.99996 5s2.23746 5 4.99996 5 5-2.2375 5-5-2.2375-5-5-5zm0 7.5c-1.375 0-2.5-1.125-2.5-2.5s1.125-2.5 2.5-2.5 2.5 1.125 2.5 2.5-1.125 2.5-2.5 2.5z" fill="#ccb280"/></svg>